<svg width="400" height="400" viewBox="0 0 400 400" fill="none" xmlns="http://www.w3.org/2000/svg">
<path d="M356.314 57H131.887C129.396 57 126.905 57.993 125.162 59.7309L35.989 148.607C33.9963 150.593 33 153.324 33 156.055V332.318C33 337.531 37.2345 341.752 42.4653 341.752L266.892 342C269.383 342 271.873 341.007 273.617 339.269L363.537 247.91C365.281 246.172 366.277 243.69 366.277 241.207L366.028 66.6821C365.779 61.2204 361.545 57 356.314 57ZM270.628 237.483C270.628 242.697 266.394 246.917 261.163 246.917H137.616C132.385 246.917 128.151 242.697 128.151 237.483V161.02C128.151 155.807 132.385 151.586 137.616 151.586H261.163C266.394 151.586 270.628 155.807 270.628 161.02V237.483Z" fill="#81D89A"/>
</svg>
