<?xml version="1.0" encoding="utf-8"?>
<!-- Generator: Adobe Illustrator 27.5.0, SVG Export Plug-In . SVG Version: 6.00 Build 0)  -->
<svg version="1.1" id="Layer_1" xmlns="http://www.w3.org/2000/svg" xmlns:xlink="http://www.w3.org/1999/xlink" x="0px" y="0px"
	 viewBox="0 0 240.6 112.8" style="enable-background:new 0 0 240.6 112.8;" xml:space="preserve">
<style type="text/css">
	.st0{fill-rule:evenodd;clip-rule:evenodd;fill:#FFFFFF;}
</style>
<path class="st0" d="M25.2,46.3H14.8l0,0c-0.7,0-1.3-0.6-1.3-1.3V1.1c0-0.7,0.6-1.3,1.3-1.3l10.4-0.1c0.7,0,1.3,0.6,1.3,1.3v17.3
	c0,0.7,0.6,1.3,1.3,1.3h12.1c0.4,0,0.7,0.1,0.9,0.4l12.3,12.5c0.2,0.2,0.4,0.6,0.4,0.9v31.2c0,0.7-0.6,1.3-1.3,1.3H41.9
	c-0.7,0-1.3-0.6-1.3-1.3V34.3c0-0.7-0.6-1.3-1.3-1.3H27.9c-0.7,0-1.3,0.6-1.3,1.3v10.6C26.5,45.7,26,46.3,25.2,46.3z M117.4,66.1
	h-10.5l0,0c-0.7,0-1.3-0.6-1.3-1.3V9.9c0-0.7,0.6-1.3,1.3-1.3h28.2c0.3,0,0.7,0.1,0.9,0.4l12.3,12.3c0.2,0.2,0.4,0.6,0.4,0.9V45
	c0,0.7-0.6,1.3-1.3,1.3h-27.3c-0.7,0-1.3,0.6-1.3,1.3v17.2C118.8,65.5,118.2,66.1,117.4,66.1z M120.1,21.6c-0.7,0-1.3,0.6-1.3,1.3
	v8.8c0,0.7,0.6,1.3,1.3,1.3h14.2c0.7,0,1.3-0.6,1.3-1.3v-8.8c0-0.7-0.6-1.3-1.3-1.3C134.3,21.6,120.1,21.6,120.1,21.6z M238.8,6.7
	h-17.2c-0.4,0-0.7,0.1-1,0.4l-12.7,12.8c-0.3,0.3-0.4,0.6-0.4,1v30.8c0,0.7,0.6,1.4,1.4,1.4h10.8c0.7,0,1.4-0.6,1.4-1.4V21.5
	c0-0.7,0.6-1.4,1.4-1.4h16.4c0.7,0,1.4-0.6,1.4-1.4V8C240.1,7.3,239.5,6.7,238.8,6.7L238.8,6.7z M99,9.8v42.5l0,0
	c0,0.4-0.1,0.7-0.4,0.9L86,65.7c-0.2,0.2-0.6,0.4-0.9,0.4H67.5c-0.7,0-1.3-0.6-1.3-1.3l-0.1-10.5c0-0.7,0.6-1.3,1.3-1.3h17.2
	c0.7,0,1.3-0.6,1.3-1.3v-4.1c0-0.7-0.6-1.3-1.3-1.3H72.9c-0.4,0-0.7-0.1-0.9-0.4L59.6,33.3c-0.2-0.2-0.4-0.6-0.4-0.9V1.1
	c0-0.7,0.6-1.3,1.3-1.3H71c0.7,0,1.3,0.6,1.3,1.3v30.5c0,0.7,0.6,1.3,1.3,1.3h11c0.7,0,1.3-0.6,1.3-1.3V9.8c0-0.7,0.6-1.3,1.3-1.3
	h10.5C98.5,8.5,99,9.1,99,9.8z M81.1,72.4h-31c-0.3,0-0.7,0.1-0.9,0.4L36.7,85.2c-0.2,0.2-0.4,0.6-0.4,0.9v24.6
	c0,0.7,0.6,1.3,1.3,1.3h31c0.4,0,0.7-0.1,0.9-0.4l12.6-12.7c0.2-0.2,0.4-0.6,0.4-0.9V73.7C82.4,73,81.8,72.4,81.1,72.4L81.1,72.4z
	 M69.3,97.5c0,0.7-0.6,1.3-1.3,1.3H50.8c-0.7,0-1.3-0.6-1.3-1.3V86.9c0-0.7,0.6-1.3,1.3-1.3h17.1c0.7,0,1.3,0.6,1.3,1.3L69.3,97.5
	L69.3,97.5z M187.9,59.4h-31.7l0,0c-0.7,0-1.3-0.6-1.3-1.3V13.7c0-0.4,0.1-0.7,0.4-0.9l12.4-12.4c0.2-0.2,0.6-0.4,0.9-0.4h31.8
	c0.7,0,1.3,0.6,1.3,1.3v17.9c0,0.4-0.1,0.7-0.4,0.9l-12.5,12.8c-0.2,0.3-0.6,0.4-0.9,0.4h-18.6c-0.7,0-1.3,0.6-1.3,1.3v10.5
	c0,0.7,0.6,1.3,1.3,1.3h18.5c0.7,0,1.3,0.6,1.3,1.3v10.5C189.3,58.8,188.7,59.4,187.9,59.4z M169.5,13.1c-0.7,0-1.3,0.6-1.3,1.3v4.2
	c0,0.7,0.6,1.3,1.3,1.3h18c0.7,0,1.3-0.6,1.3-1.3v-4.2c0-0.7-0.6-1.3-1.3-1.3H169.5z M32.6,52.9H13.8c-0.4,0-0.7,0.1-0.9,0.4
	L0.5,65.7c-0.3,0.3-0.4,0.6-0.4,1v44.5c0,0.7,0.6,1.3,1.3,1.3h10.5c0.7,0,1.3-0.6,1.3-1.3V94c0-0.7,0.6-1.3,1.3-1.3h14
	c0.7,0,1.3-0.6,1.3-1.3V80.7c0-0.7-0.6-1.3-1.3-1.3h-14c-0.7,0-1.3-0.6-1.3-1.3V67.4c0-0.7,0.6-1.3,1.3-1.3h18
	c0.7,0,1.3-0.6,1.3-1.3V54.2C33.9,53.5,33.4,52.9,32.6,52.9L32.6,52.9z M102.6,72.4h25.1l0,0c0.7,0,1.3,0.6,1.3,1.3v10.5
	c0,0.7-0.6,1.3-1.3,1.3h-24.3c-0.7,0-1.3,0.6-1.3,1.3v10.6c0,0.7,0.6,1.3,1.3,1.3h24.3c0.7,0,1.3,0.6,1.3,1.3v10.5
	c0,0.7-0.6,1.3-1.3,1.3H90.3c-0.7,0-1.3-0.6-1.3-1.3V86.1c0-0.3,0.1-0.7,0.4-0.9l12.3-12.4C101.9,72.6,102.2,72.4,102.6,72.4z
	 M173.7,72.4h-10.5c-0.7,0-1.3,0.6-1.3,1.3v23.7c0,0.7-0.6,1.3-1.3,1.3H150c-0.7,0-1.3-0.6-1.3-1.3V54.3c0-0.7-0.6-1.3-1.3-1.3H137
	c-0.7,0-1.3,0.6-1.3,1.3v44c0,0.3,0.1,0.7,0.4,0.9l12.3,12.4c0.2,0.2,0.6,0.4,0.9,0.4h24.4c0.7,0,1.3-0.6,1.3-1.3V73.8
	C175,73,174.4,72.4,173.7,72.4z M195.8,79h23.8c0.7,0,1.3,0.6,1.3,1.3v17.5c0,0.4-0.1,0.7-0.4,0.9l-12.4,12.7
	c-0.3,0.3-0.6,0.4-0.9,0.4h-24.4c-0.7,0-1.3-0.6-1.3-1.3V99.8c0-0.7,0.6-1.3,1.3-1.3h23.6c0.8,0,1.4-0.6,1.4-1.4v-3.9
	c0-0.8-0.6-1.4-1.4-1.4h-23.7c-0.7,0-1.3-0.6-1.3-1.3V73.6c0-0.4,0.1-0.7,0.4-0.9l12.3-12.6c0.2-0.2,0.6-0.4,0.9-0.4h24.5
	c0.7,0,1.3,0.6,1.3,1.3v10.6c0,0.7-0.6,1.3-1.3,1.3h-23.7c-0.7,0-1.3,0.6-1.3,1.3v3.3C194.5,78.4,195.1,79,195.8,79z"/>
</svg>
