<?xml version="1.0" encoding="utf-8"?>
<!-- Generator: Adobe Illustrator 27.5.0, SVG Export Plug-In . SVG Version: 6.00 Build 0)  -->
<svg version="1.1" id="Layer_1" xmlns="http://www.w3.org/2000/svg" xmlns:xlink="http://www.w3.org/1999/xlink" x="0px" y="0px"
	 viewBox="0 0 240.6 112.8" style="enable-background:new 0 0 240.6 112.8;" xml:space="preserve">
<style type="text/css">
	.st0{fill-rule:evenodd;clip-rule:evenodd;fill:#FA6F6C;}
</style>
<path class="st0" d="M25.1,46.6H14.7l0,0c-0.7,0-1.3-0.6-1.3-1.3V1.4c0-0.7,0.6-1.3,1.3-1.3L25.1,0c0.7,0,1.3,0.6,1.3,1.3v17.3
	c0,0.7,0.6,1.3,1.3,1.3h12.1c0.4,0,0.7,0.1,0.9,0.4L53,32.8c0.2,0.2,0.4,0.6,0.4,0.9v31.2c0,0.7-0.6,1.3-1.3,1.3H41.8
	c-0.7,0-1.3-0.6-1.3-1.3V34.6c0-0.7-0.6-1.3-1.3-1.3H27.8c-0.7,0-1.3,0.6-1.3,1.3v10.6C26.4,46,25.9,46.6,25.1,46.6z M117.3,66.4
	h-10.5l0,0c-0.7,0-1.3-0.6-1.3-1.3V10.2c0-0.7,0.6-1.3,1.3-1.3H135c0.3,0,0.7,0.1,0.9,0.4l12.3,12.3c0.2,0.2,0.4,0.6,0.4,0.9v22.8
	c0,0.7-0.6,1.3-1.3,1.3H120c-0.7,0-1.3,0.6-1.3,1.3v17.2C118.7,65.8,118.1,66.4,117.3,66.4z M120,21.9c-0.7,0-1.3,0.6-1.3,1.3V32
	c0,0.7,0.6,1.3,1.3,1.3h14.2c0.7,0,1.3-0.6,1.3-1.3v-8.8c0-0.7-0.6-1.3-1.3-1.3C134.2,21.9,120,21.9,120,21.9z M238.7,7h-17.2
	c-0.4,0-0.7,0.1-1,0.4l-12.7,12.8c-0.3,0.3-0.4,0.6-0.4,1V52c0,0.7,0.6,1.4,1.4,1.4h10.8c0.7,0,1.4-0.6,1.4-1.4V21.8
	c0-0.7,0.6-1.4,1.4-1.4h16.4c0.7,0,1.4-0.6,1.4-1.4V8.3C240,7.6,239.4,7,238.7,7L238.7,7z M98.9,10.1v42.5l0,0
	c0,0.4-0.1,0.7-0.4,0.9L85.9,66c-0.2,0.2-0.6,0.4-0.9,0.4H67.4c-0.7,0-1.3-0.6-1.3-1.3L66,54.6c0-0.7,0.6-1.3,1.3-1.3h17.2
	c0.7,0,1.3-0.6,1.3-1.3v-4.1c0-0.7-0.6-1.3-1.3-1.3H72.8c-0.4,0-0.7-0.1-0.9-0.4L59.5,33.6c-0.2-0.2-0.4-0.6-0.4-0.9V1.4
	c0-0.7,0.6-1.3,1.3-1.3h10.5c0.7,0,1.3,0.6,1.3,1.3v30.5c0,0.7,0.6,1.3,1.3,1.3h11c0.7,0,1.3-0.6,1.3-1.3V10.1
	c0-0.7,0.6-1.3,1.3-1.3h10.5C98.4,8.8,98.9,9.4,98.9,10.1z M81,72.7H50c-0.3,0-0.7,0.1-0.9,0.4L36.6,85.5c-0.2,0.2-0.4,0.6-0.4,0.9
	V111c0,0.7,0.6,1.3,1.3,1.3h31c0.4,0,0.7-0.1,0.9-0.4L82,99.2c0.2-0.2,0.4-0.6,0.4-0.9V74C82.3,73.3,81.7,72.7,81,72.7L81,72.7z
	 M69.2,97.8c0,0.7-0.6,1.3-1.3,1.3H50.7c-0.7,0-1.3-0.6-1.3-1.3V87.2c0-0.7,0.6-1.3,1.3-1.3h17.1c0.7,0,1.3,0.6,1.3,1.3L69.2,97.8
	L69.2,97.8z M187.8,59.7h-31.7l0,0c-0.7,0-1.3-0.6-1.3-1.3V14c0-0.4,0.1-0.7,0.4-0.9l12.4-12.4c0.2-0.2,0.6-0.4,0.9-0.4h31.8
	c0.7,0,1.3,0.6,1.3,1.3v17.9c0,0.4-0.1,0.7-0.4,0.9l-12.5,12.8c-0.2,0.3-0.6,0.4-0.9,0.4h-18.6c-0.7,0-1.3,0.6-1.3,1.3v10.5
	c0,0.7,0.6,1.3,1.3,1.3h18.5c0.7,0,1.3,0.6,1.3,1.3v10.5C189.2,59.1,188.6,59.7,187.8,59.7z M169.4,13.4c-0.7,0-1.3,0.6-1.3,1.3v4.2
	c0,0.7,0.6,1.3,1.3,1.3h18c0.7,0,1.3-0.6,1.3-1.3v-4.2c0-0.7-0.6-1.3-1.3-1.3H169.4z M32.5,53.2H13.7c-0.4,0-0.7,0.1-0.9,0.4L0.4,66
	C0.1,66.3,0,66.6,0,67v44.5c0,0.7,0.6,1.3,1.3,1.3h10.5c0.7,0,1.3-0.6,1.3-1.3V94.3c0-0.7,0.6-1.3,1.3-1.3h14c0.7,0,1.3-0.6,1.3-1.3
	V81c0-0.7-0.6-1.3-1.3-1.3h-14c-0.7,0-1.3-0.6-1.3-1.3V67.7c0-0.7,0.6-1.3,1.3-1.3h18c0.7,0,1.3-0.6,1.3-1.3V54.5
	C33.8,53.8,33.3,53.2,32.5,53.2L32.5,53.2z M102.5,72.7h25.1l0,0c0.7,0,1.3,0.6,1.3,1.3v10.5c0,0.7-0.6,1.3-1.3,1.3h-24.3
	c-0.7,0-1.3,0.6-1.3,1.3v10.6c0,0.7,0.6,1.3,1.3,1.3h24.3c0.7,0,1.3,0.6,1.3,1.3v10.5c0,0.7-0.6,1.3-1.3,1.3H90.2
	c-0.7,0-1.3-0.6-1.3-1.3V86.4c0-0.3,0.1-0.7,0.4-0.9l12.3-12.4C101.8,72.9,102.1,72.7,102.5,72.7z M173.6,72.7h-10.5
	c-0.7,0-1.3,0.6-1.3,1.3v23.7c0,0.7-0.6,1.3-1.3,1.3h-10.6c-0.7,0-1.3-0.6-1.3-1.3V54.6c0-0.7-0.6-1.3-1.3-1.3h-10.4
	c-0.7,0-1.3,0.6-1.3,1.3v44c0,0.3,0.1,0.7,0.4,0.9l12.3,12.4c0.2,0.2,0.6,0.4,0.9,0.4h24.4c0.7,0,1.3-0.6,1.3-1.3V74.1
	C174.9,73.3,174.3,72.7,173.6,72.7z M195.7,79.3h23.8c0.7,0,1.3,0.6,1.3,1.3v17.5c0,0.4-0.1,0.7-0.4,0.9L208,111.7
	c-0.3,0.3-0.6,0.4-0.9,0.4h-24.4c-0.7,0-1.3-0.6-1.3-1.3v-10.7c0-0.7,0.6-1.3,1.3-1.3h23.6c0.8,0,1.4-0.6,1.4-1.4v-3.9
	c0-0.8-0.6-1.4-1.4-1.4h-23.7c-0.7,0-1.3-0.6-1.3-1.3V73.9c0-0.4,0.1-0.7,0.4-0.9L194,60.4c0.2-0.2,0.6-0.4,0.9-0.4h24.5
	c0.7,0,1.3,0.6,1.3,1.3v10.6c0,0.7-0.6,1.3-1.3,1.3h-23.7c-0.7,0-1.3,0.6-1.3,1.3v3.3C194.4,78.7,195,79.3,195.7,79.3z"/>
</svg>
