
<svg width="300" height="148" viewBox="0 0 300 148" fill="none" xmlns="http://www.w3.org/2000/svg">
<path fill-rule="evenodd" clip-rule="evenodd" d="M31.2868 57.5794H18.2582C17.3153 57.5794 16.5868 56.8532 16.5868 55.9562V1.7513C16.5868 0.854293 17.3153 0.128144 18.2153 0.128144L31.2439 0C32.1439 0 32.9153 0.726149 32.9153 1.62316V23.0659C32.9153 23.9629 33.6439 24.6891 34.5439 24.6891H48.8582C49.3296 24.6891 49.8011 24.9026 50.1439 25.2444L65.4011 40.6216C65.7439 40.9634 65.9154 41.4332 65.9154 41.9031V80.4744C65.9154 81.3714 65.1868 82.0976 64.2868 82.0976H51.2153C50.3153 82.0976 49.5868 81.3714 49.5868 80.4744V42.8001C49.5868 41.9031 48.8582 41.1769 47.9582 41.1769H34.5439C33.6439 41.1769 32.9153 41.9031 32.9153 42.8001V55.9562C32.9153 56.8532 32.1868 57.5794 31.2868 57.5794ZM145.972 82.0913H132.944C132.044 82.0913 131.272 81.3651 131.315 80.5108V12.5946C131.315 11.6975 132.044 10.9714 132.944 10.9714L168.001 10.9287C168.429 10.9287 168.858 11.0995 169.158 11.3985L184.458 26.605C184.801 26.9467 184.972 27.4165 184.972 27.8864V55.9926C184.972 56.8897 184.244 57.6158 183.344 57.6158H149.229C148.329 57.6158 147.601 58.3419 147.601 59.239V80.4681C147.601 81.3651 146.872 82.0913 145.972 82.0913ZM149.229 27.1175C148.329 27.1175 147.601 27.8437 147.601 28.7407V39.5902C147.601 40.4872 148.329 41.2134 149.229 41.2134H166.929C167.829 41.2134 168.558 40.4872 168.558 39.5902V28.7407C168.558 27.8437 167.829 27.1175 166.929 27.1175H149.229ZM298.328 10.3306L275.528 10.2879C275.057 10.2879 274.586 10.4588 274.243 10.8432L258.557 26.5622C258.214 26.9039 258.043 27.3738 258.043 27.8436V64.1938C258.043 65.1335 258.814 65.8597 259.714 65.8597H273.128C274.071 65.8597 274.8 65.0908 274.8 64.1938V28.7407C274.8 27.8009 275.571 27.0748 276.471 27.0748H298.328C299.271 27.0748 300 26.3059 300 25.4089V12.0392C300 11.0995 299.228 10.3306 298.328 10.3306ZM123.086 12.5196V65.0586C123.086 65.5712 122.915 66.041 122.615 66.3827L106.972 81.5891C106.629 81.9309 106.157 82.1017 105.686 82.1017H84.0431C83.1431 82.1017 82.4145 81.3756 82.4145 80.4786L82.286 67.4933C82.2431 66.5536 83.0145 65.8274 83.9145 65.8274H105.172C106.072 65.8274 106.8 65.1013 106.8 64.2043V59.164C106.8 58.2669 106.072 57.5408 105.172 57.5408H90.8574C90.386 57.5408 89.9145 57.3272 89.5717 56.9855L74.3145 41.6082C73.9717 41.2665 73.8002 40.7967 73.8002 40.3268V1.75547C73.8002 0.858458 74.5288 0.132308 75.4288 0.132308H88.4574C89.3574 0.132308 90.086 0.858458 90.086 1.75547V39.3871C90.086 40.2841 90.8145 41.0102 91.7145 41.0102H105.172C106.072 41.0102 106.8 40.2841 106.8 39.3871V12.5196C106.8 11.6226 107.529 10.8964 108.429 10.8964H121.457C122.357 10.8964 123.086 11.6226 123.086 12.5196ZM100.756 89.8696H62.1419C61.7133 89.8696 61.2847 90.0404 60.9847 90.3394L45.6419 105.631C45.299 105.973 45.1276 106.443 45.1276 106.913V137.24C45.1276 138.137 45.8562 138.863 46.7562 138.863L85.3704 138.906C85.799 138.906 86.2276 138.735 86.5276 138.436L101.999 122.717C102.299 122.418 102.47 121.991 102.47 121.564L102.428 91.5355C102.385 90.5957 101.656 89.8696 100.756 89.8696ZM86.0133 120.923C86.0133 121.82 85.2847 122.546 84.3847 122.546H63.1276C62.2276 122.546 61.499 121.82 61.499 120.923V107.767C61.499 106.87 62.2276 106.144 63.1276 106.144H84.3847C85.2847 106.144 86.0133 106.87 86.0133 107.767V120.923ZM233.7 73.8601H194.314C193.371 73.8601 192.643 73.0912 192.685 72.1942V17.3486C192.685 16.8787 192.857 16.4089 193.2 16.0671L208.543 0.775303C208.885 0.433585 209.357 0.262727 209.828 0.262727H248.485C249.385 0.262727 250.114 0.988876 250.114 1.88588L250.157 24.0548C250.157 24.4819 249.985 24.9091 249.685 25.2081L234.128 41.0125C233.828 41.3115 233.4 41.4824 232.971 41.4824L210.685 41.4396C209.785 41.4396 209.057 42.1658 209.057 43.0628V56.0053C209.057 56.9024 209.785 57.5858 210.643 57.5858H233.7C234.6 57.5858 235.328 58.3119 235.328 59.2089V72.2369C235.328 73.1339 234.6 73.8601 233.7 73.8601ZM210.685 16.5797C209.785 16.5797 209.057 17.3059 209.057 18.2029V23.4141C209.057 24.3111 209.785 25.0372 210.685 25.0372H232.028C232.928 25.0372 233.657 24.3111 233.657 23.4141V18.2029C233.657 17.3059 232.928 16.5797 232.028 16.5797H210.685ZM39.7714 65.7743H17.1857C16.7143 65.7743 16.2429 65.9452 15.9 66.2869L0.514286 81.6215C0.171429 81.9632 0 82.433 0 82.9029V146.121C0 147.018 0.728572 147.744 1.62857 147.744H14.7C15.6 147.744 16.3286 147.018 16.3286 146.121L16.3714 116.519C16.3714 115.622 17.1 114.896 18 114.896L35.3572 114.939C36.2572 114.939 37.0286 114.213 37.0286 113.316V100.202C37.0286 99.3053 36.3 98.5792 35.4 98.5792H18.0429C17.1429 98.5792 16.4143 97.853 16.4143 96.956V83.7572C16.4143 82.8602 17.1429 82.134 18.0429 82.134H39.7286C40.6286 82.134 41.3572 81.4079 41.3572 80.5109V67.4829C41.4 66.5432 40.6714 65.7743 39.7714 65.7743ZM127.586 89.9131H158.701C159.601 89.9131 160.329 90.6392 160.329 91.5789V104.521C160.329 105.418 159.601 106.145 158.701 106.145H128.443C127.543 106.145 126.815 106.871 126.815 107.768V120.881C126.815 121.778 127.543 122.504 128.443 122.504H158.701C159.601 122.504 160.329 123.23 160.329 124.127V137.155C160.329 138.052 159.601 138.779 158.701 138.779L112.158 138.736C111.258 138.736 110.529 138.01 110.529 137.113V106.913C110.529 106.444 110.701 105.974 111.043 105.632L126.301 90.4256C126.643 90.0839 127.115 89.9131 127.586 89.9131ZM215.956 89.9202H202.885C201.985 89.9202 201.256 90.6463 201.256 91.5434V120.888C201.256 121.785 200.528 122.511 199.628 122.511H186.471C185.571 122.511 184.842 121.785 184.842 120.888V67.4523C184.842 66.5553 184.114 65.8291 183.214 65.8291H170.228C169.328 65.8291 168.599 66.5553 168.599 67.4523V121.743C168.599 122.212 168.771 122.682 169.114 123.024L184.328 138.23C184.671 138.572 185.142 138.743 185.614 138.743H215.914C216.814 138.743 217.542 138.017 217.542 137.12L217.585 91.5006C217.628 90.6463 216.856 89.9202 215.956 89.9202ZM243.515 97.3408H273.3C274.2 97.3408 274.972 98.0669 274.886 98.9212V121.176C274.886 121.645 274.715 122.115 274.372 122.457L258.9 138.091C258.557 138.432 258.086 138.646 257.615 138.646H227.1C226.157 138.646 225.429 137.877 225.429 136.98V123.781C225.429 122.841 226.2 122.115 227.1 122.115H256.586C257.615 122.115 258.429 121.304 258.429 120.321V115.623C258.472 114.598 257.615 113.786 256.629 113.786H227.014C226.072 113.786 225.343 113.017 225.343 112.12V89.6521C225.343 89.1823 225.514 88.7124 225.857 88.3707L241.372 72.8653C241.672 72.5663 242.1 72.3954 242.529 72.3954H269.057C270 72.3954 270.729 73.1643 270.729 74.0613V87.1747C270.729 88.1144 269.957 88.8406 269.057 88.8406H243.515C242.572 88.8406 241.843 89.6094 241.843 90.5064V95.6749C241.843 96.6146 242.615 97.3408 243.515 97.3408Z" />
</svg>
